#!OML:ASF I:\Actors\actors\Patient Classification 1\Patient 1\Session 1\Subject1.ASF
:FULLY-SPECIFIED
:DEGREES
1426
root 0.713928 17.4861 9.93519 11.712 -0.758955 -9.71399
lowerback -1.2121 0.363603 6.88113
upperback -8.80106 0.891506 2.22678
thorax -8.56158 0.0260347 -1.53574
lowerneck -14.7942 8.40505 10.2523
upperneck 31.8995 13.0068 -9.91897
head 14.9506 5.60633 -3.52224
rclavicle 3.07122e-014 -3.69739e-014
rhumerus -51.5373 2.85555 -92.1228
rradius 68.5565
rwrist -28.5722
rhand 1.09221 -70.9199
rfingers 7.12502
rthumb 26.6361 99.0662
lclavicle 3.07122e-014 -3.69739e-014
lhumerus 7.21669 21.3554 84.1122
lradius 107.827
lwrist 100.588
lhand -27.6597 -4.2896
lfingers 7.12502
lthumb -1.05726 25.6875
rfemur -3.37643 22.6467 25.8238
rtibia 2.2591
rfoot -16.398 -26.3371
rtoes 0.414055
lfemur 5.30575 -43.8101 -10.1544
ltibia -4.6396
lfoot -22.487 51.4402
ltoes 6.93222
1427
root 0.719825 17.486 9.93306 11.7277 -0.995454 -9.72063
lowerback -1.14071 0.386577 6.95047
upperback -8.79986 0.930095 2.21381
thorax -8.59952 0.0379327 -1.59057
lowerneck -14.6667 8.53004 10.4127
upperneck 31.6479 13.1806 -10.0671
head 14.8586 5.68919 -3.57354
rclavicle -4.96962e-016 3.26007e-014
rhumerus -52.2154 4.63481 -94.3718
rradius 72.1562
rwrist -28.0857
rhand 1.76124 -69.4959
rfingers 7.12502
rthumb 27.2762 97.5432
lclavicle -4.96962e-016 3.26007e-014
lhumerus 7.194 21.6487 83.9132
lradius 108.026
lwrist 100.696
lhand -27.642 -4.52331
lfingers 7.12502
lthumb -1.04014 25.4539
rfemur -3.41723 22.7294 25.7513
rtibia 2.26176
rfoot -16.3984 -26.1366
rtoes 0.695717
lfemur 5.4826 -44.0539 -10.3454
ltibia -4.64764
lfoot -23.3934 51.7015
ltoes 8.26206
1428
root 0.727455 17.4868 9.93004 11.738 -1.32304 -9.72898
lowerback -1.08989 0.436397 7.05672
upperback -8.7734 1.00095 2.17738
thorax -8.5942 0.0635897 -1.69289
lowerneck -14.6687 8.63403 10.4261
upperneck 31.5102 13.292 -10.0055
head 14.8066 5.74729 -3.52325
rclavicle 8.59744e-015 1.63003e-014
rhumerus -52.5871 6.78839 -96.8609
rradius 76.2694
rwrist -27.5369
rhand 2.12538 -67.9176
rfingers 7.12502
rthumb 27.6245 95.9096
lclavicle 8.59744e-015 1.63003e-014
lhumerus 7.26502 21.9334 83.7815
lradius 108.196
lwrist 100.784
lhand -27.6358 -4.75601
lfingers 7.12502
lthumb -1.03417 25.2212
rfemur -3.44862 22.7529 25.6618
rtibia 2.24304
rfoot -16.2758 -25.8372
rtoes 0.50976
lfemur 5.79434 -44.4061 -10.6668
ltibia -4.68184
lfoot -24.3106 52.1778
ltoes 9.39116
1429
root 0.735142 17.4871 9.92576 11.8615 -1.80338 -9.69408
lowerback -1.13659 0.499579 7.07308
upperback -8.78005 1.07943 2.15475
thorax -8.56706 0.100165 -1.73023
lowerneck -14.6491 8.74845 10.4692
upperneck 31.3317 13.4409 -10.039
head 14.7487 5.81418 -3.5102
rclavicle 2.5345e-015 1.78906e-014
rhumerus -52.68 9.38943 -99.4917
rradius 80.5052
rwrist -26.9073
rhand 3.8069 -64.4846
rfingers 7.12502
rthumb 29.2313 92.2083
lclavicle 2.5345e-015 1.78906e-014
lhumerus 7.2913 22.3502 83.635
lradius 108.395
lwrist 100.838
lhand -27.5906 -4.75766
lfingers 7.12502
lthumb -0.990535 25.2198
rfemur -3.65906 22.7704 25.4363
rtibia 2.27737
rfoot -16.1165 -25.419
rtoes -0.173427
lfemur 6.01683 -44.7124 -10.9952
ltibia -4.73275
lfoot -25.1401 52.7733
ltoes 10.0941
1430
root 0.74174 17.4859 9.91796 12.1049 -2.51004 -9.65111
lowerback -1.22935 0.618074 7.01144
upperback -8.83994 1.22825 2.14112
thorax -8.56597 0.175657 -1.71799
lowerneck -14.5212 8.88181 10.6498
upperneck 31.0523 13.6437 -10.2648
head 14.6605 5.90233 -3.59068
rclavicle 4.72114e-015 2.66371e-014
rhumerus -52.4637 12.4658 -102.217
rradius 84.5027
rwrist -26.4441
rhand 0.514968 -59.3485
rfingers 7.12502
rthumb 26.0835 -87.5775
lclavicle 4.72114e-015 2.66371e-014
lhumerus 7.23289 22.8197 83.4638
lradius 108.646
lwrist 100.872
lhand -27.5094 -4.74274
lfingers 7.12502
lthumb -0.912042 25.2351
rfemur -4.1152 22.8111 25.0846
rtibia 2.42023
rfoot -15.9481 -24.7593
rtoes -0.692358
lfemur 6.11599 -44.8983 -11.2587
ltibia -4.79375
lfoot -26.3857 53.3476
ltoes 11.2242
1431
root 0.750764 17.486 9.91078 12.1676 -2.98477 -9.64442
lowerback -1.16245 0.666502 7.08226
upperback -8.87134 1.30195 2.12718
thorax -8.634 0.202766 -1.77676
lowerneck -14.3345 8.97859 10.8165
upperneck 30.7597 13.7766 -10.4308
head 14.537 5.9695 -3.65958
rclavicle -7.15625e-015 3.29983e-014
rhumerus -51.8656 15.8227 -104.746
rradius 88.7082
rwrist -24.0324
rhand 3.1203 -56.419
rfingers 7.12502
rthumb 28.5755 -84.255
lclavicle -7.15625e-015 3.29983e-014
lhumerus 7.1066 23.2345 83.2915
lradius 108.95
lwrist 100.994
lhand -27.3443 -4.7841
lfingers 7.12502
lthumb -0.752611 25.1943
rfemur -4.26776 22.8582 24.9084
rtibia 2.45028
rfoot -15.8354 -24.3191
rtoes -0.751131
lfemur 6.26446 -44.8854 -11.4658
ltibia -4.81358
lfoot -27.3857 53.5128
ltoes 12.2628
